<?xml version="1.0" encoding="UTF-8"?>
<svg width="16px" height="9px" viewBox="0 0 16 9" version="1.1" xmlns="http://www.w3.org/2000/svg" xmlns:xlink="http://www.w3.org/1999/xlink">
    <!-- Generator: Sketch 54.1 (76490) - https://sketchapp.com -->
    <title>Logo</title>
    <desc>Created with Sketch.</desc>
    <g id="Marjon" stroke="none" stroke-width="1" fill="none" fill-rule="evenodd">
        <g id="Orange-landing-page" transform="translate(-138.000000, -50.000000)">
            <g id="Group" transform="translate(138.000000, 46.000000)">
                <g id="Logo" transform="translate(0.000000, 4.000000)">
                    <path d="M12.9871587,2.44529003 C17.1216126,-0.232661123 16.9363437,7.51316311 12.8281938,5.29533013 L12.9871587,2.44529003 Z" id="Fill-91" fill="#4A4A4A"></path>
                    <path d="M3.17180617,5.2953359 L3.0128442,2.44531251 C-1.1216115,-0.232702142 -0.93634592,7.51315588 3.17180617,5.2953359" id="Fill-93" fill="#4A4A4A"></path>
                    <path d="M11.7805271,0.564570281 L11.7805271,0.563627235 C11.7716816,0.560640922 11.7624643,0.557890371 11.7535445,0.554904058 C11.7461855,0.552467856 11.7387523,0.55011024 11.7313191,0.547752625 C10.6887332,0.205269707 9.36784688,0 7.92951542,0 C6.4910353,0 5.169926,0.205348294 4.12741444,0.547909799 C3.20717963,0.843633347 2.53744493,1.74754306 2.53744493,2.81711454 L2.53744493,4.2490515 C2.53744493,5.87887096 3.78704649,7.2 5.32862562,7.2 L10.5304052,7.2 C12.07191,7.2 13.3215859,5.87887096 13.3215859,4.2490515 L13.3215859,2.81711454 C13.3215859,1.76663974 12.6754146,0.876247026 11.7805271,0.564570281" id="Fill-95" fill="#4A4A4A"></path>
                    <path d="M6.48607679,5.18688423 C3.88459224,9.98201996 12.3099791,9.9600446 9.74424461,5.18688423 C12.4065787,6.21506264 12.9560863,4.80397532 12.2867416,3.43596921 C12.2618656,3.38506224 12.2115176,3.35320586 12.1574457,3.35194109 C7.85433448,3.24506809 4.28983365,3.33336479 3.65109989,3.35115061 C3.58786704,3.35288967 3.53312481,3.39668231 3.51331334,3.46039506 C3.34566062,4.00140014 2.79302484,6.37790169 6.48607679,5.18688423" id="Fill-97" fill="#FFEBED"></path>
                    <path d="M7.85907638,3.075 C5.6645943,3.075 4.08700386,3.11404759 3.65575916,3.12601379 C3.49945617,3.13034367 3.36150243,3.23929905 3.31254632,3.39706392 C3.20854243,3.73211747 3.0104893,4.57549826 3.41714452,5.17081661 C3.6819087,5.55845845 4.13922867,5.75503475 4.77647536,5.75503475 C5.14019182,5.75503475 5.57024791,5.69008663 6.0596605,5.56145 C5.58978578,6.67493622 5.75908926,7.43187698 6.00803,7.888167 C6.38222114,8.57394037 7.18223392,9 8.0959081,9 C9.01671397,9 9.82445275,8.56976794 10.2039184,7.87730296 C10.4516705,7.4253428 10.6232769,6.6798959 10.1777688,5.5894761 C10.5964588,5.714885 10.9723585,5.77817989 11.2996737,5.77817989 C12.0635079,5.77817989 12.4189041,5.43785177 12.5826359,5.15231624 C12.8497031,4.68642177 12.8097358,4.02505315 12.4729118,3.33770528 C12.4108066,3.21095805 12.2876363,3.13010749 12.1514655,3.12672232 C10.7660594,3.09239822 9.3218911,3.075 7.85907638,3.075 M7.85907638,3.31117496 C9.12042071,3.31117496 10.5848698,3.32416459 12.146191,3.36289728 C12.2001245,3.36415688 12.2503435,3.39588305 12.2751559,3.44658194 C12.782472,4.48197297 12.5879104,5.54200493 11.2996737,5.54200493 C10.8927956,5.54200493 10.3766391,5.43619855 9.73916956,5.19034041 C11.0203489,7.57011805 9.55433979,8.76382504 8.0959081,8.76382504 C6.64096796,8.76382504 5.19353096,7.57523518 6.48934515,5.19034041 C5.76718671,5.42289402 5.20794293,5.51885978 4.77647536,5.51885978 C3.00722061,5.51885978 3.38973206,3.90405284 3.52419423,3.47090796 C3.54395497,3.40745562 3.59855702,3.36384198 3.66162795,3.36211003 C4.06694596,3.35085236 5.65300529,3.31117496 7.85907638,3.31117496" id="Fill-99" fill="#4A4A4A"></path>
                    <path d="M7.25991189,4.56482403 L8.03069479,5.16117125 C8.05654749,5.18120162 8.09042098,5.17934226 8.11462656,5.15643834 L8.81057269,4.5 L8.04730927,4.88176026 C8.03413227,4.88691576 8.01995267,4.88742286 8.00648922,4.88319704 L7.25991189,4.56482403 Z" id="Fill-101" fill="#4A4A4A"></path>
                    <path d="M7.25991189,4.56482403 L8.03069479,5.16117125 C8.05654749,5.18120162 8.09042098,5.17934226 8.11462656,5.15643834 L8.81057269,4.5 L8.04730927,4.88176026 C8.03413227,4.88691576 8.01995267,4.88742286 8.00648922,4.88319704 L7.25991189,4.56482403 Z" id="Stroke-103" stroke="#4A4A4A" stroke-width="0.5" stroke-linejoin="round"></path>
                    <path d="M6.20264317,6.3 L10.0792952,6.3 C10.0792952,6.3 8.54941473,5.9625 6.20264317,6.3" id="Fill-105" fill="#4A4A4A"></path>
                    <path d="M6.20264317,6.3 L10.0792952,6.3 C10.0792952,6.3 8.54941473,5.9625 6.20264317,6.3 Z" id="Stroke-107" stroke="#4A4A4A" stroke-width="0.5" stroke-linejoin="round"></path>
                    <path d="M6.27312775,4.1999942 C5.45261379,4.20334885 5.59325197,2.74972463 6.27312775,2.77533447 C6.95300353,2.80102612 7.09364172,4.19672138 6.27312775,4.1999942" id="Fill-109" fill="#4A4A4A"></path>
                    <path d="M9.72687225,4.1999942 C8.90635828,4.20334885 9.04699647,2.74972463 9.72687225,2.77533447 C10.406748,2.80102612 10.5473862,4.19672138 9.72687225,4.1999942" id="Fill-111" fill="#4A4A4A"></path>
                </g>
            </g>
        </g>
    </g>
</svg>